<svg id="svg" version="1.1" xmlns="http://www.w3.org/2000/svg" xmlns:xlink="http://www.w3.org/1999/xlink" width="400" height="400" viewBox="0, 0, 400,400"><g id="svgg"><path id="path0" d="M272.488 89.665 C 271.547 89.828,270.220 90.359,269.540 90.843 C 266.993 92.656,90.944 269.089,90.275 270.498 C 87.548 276.245,92.036 283.168,98.504 283.194 C 102.160 283.209,98.694 286.544,192.619 192.619 C 263.624 121.614,281.615 103.420,282.319 101.904 C 283.348 99.691,283.430 97.636,282.580 95.400 C 282.245 94.520,281.877 93.530,281.763 93.200 C 281.045 91.135,275.715 89.104,272.488 89.665 M289.800 192.000 C 289.664 192.220,289.200 192.400,288.768 192.400 C 288.336 192.400,287.042 193.370,285.892 194.555 C 283.323 197.201,282.304 198.226,274.000 206.521 C 270.370 210.147,266.590 213.931,265.600 214.930 C 264.610 215.929,260.650 219.894,256.800 223.740 C 252.950 227.585,249.231 231.303,248.536 232.002 C 247.840 232.700,244.121 236.421,240.271 240.271 C 236.421 244.121,232.700 247.840,232.002 248.536 C 231.303 249.231,227.585 252.950,223.740 256.800 C 219.894 260.650,215.929 264.610,214.930 265.600 C 213.931 266.590,210.147 270.370,206.521 274.000 C 198.226 282.304,197.201 283.323,194.555 285.892 C 193.370 287.042,192.400 288.336,192.400 288.768 C 192.400 289.200,192.220 289.664,192.000 289.800 C 191.780 289.936,191.605 291.252,191.611 292.724 C 191.628 296.625,192.741 298.616,195.829 300.267 C 201.031 303.048,203.728 301.961,211.685 293.875 C 218.963 286.480,221.179 284.260,227.210 278.328 C 229.965 275.618,233.614 271.915,235.318 270.100 C 237.023 268.285,238.530 266.800,238.667 266.800 C 238.894 266.800,246.368 259.294,251.456 253.957 C 252.587 252.771,256.499 248.920,260.150 245.400 C 263.801 241.880,266.790 238.869,266.794 238.709 C 266.797 238.548,268.285 237.023,270.100 235.318 C 271.915 233.614,275.618 229.965,278.328 227.210 C 284.261 221.179,286.484 218.958,293.860 211.700 C 302.005 203.686,303.093 200.996,300.289 195.822 C 298.614 192.733,296.628 191.628,292.724 191.611 C 291.252 191.605,289.936 191.780,289.800 192.000 " stroke="none" fill="#f9f9f9" fill-rule="evenodd"></path><path id="path1" d="M0.000 200.000 L 0.000 400.000 200.000 400.000 L 400.000 400.000 400.000 200.000 L 400.000 0.000 200.000 0.000 L 0.000 0.000 0.000 200.000 M277.825 89.171 C 279.839 90.157,282.800 92.852,282.800 93.700 C 282.800 94.059,282.980 94.464,283.200 94.600 C 283.420 94.736,283.600 96.457,283.600 98.424 C 283.600 100.541,283.437 102.000,283.200 102.000 C 282.980 102.000,282.800 102.360,282.800 102.800 C 282.800 103.240,282.620 103.600,282.400 103.600 C 282.180 103.600,282.000 103.799,282.000 104.042 C 282.000 104.522,269.104 117.600,268.631 117.600 C 268.212 117.600,267.200 118.678,267.200 119.125 C 267.200 119.335,266.509 120.113,265.664 120.853 C 263.676 122.596,263.780 122.496,257.536 128.721 C 254.601 131.648,252.069 134.168,251.909 134.321 C 251.748 134.475,249.832 136.400,247.649 138.600 C 242.829 143.460,243.460 142.829,238.600 147.649 C 236.400 149.832,234.475 151.748,234.321 151.909 C 234.168 152.069,231.648 154.601,228.721 157.536 C 222.496 163.780,222.596 163.676,220.853 165.664 C 220.113 166.509,219.335 167.200,219.125 167.200 C 218.671 167.200,217.600 168.214,217.600 168.644 C 217.600 168.810,214.405 172.071,210.500 175.890 C 206.595 179.709,203.066 183.167,202.658 183.574 C 201.690 184.541,184.541 201.690,183.574 202.658 C 183.167 203.066,179.709 206.595,175.890 210.500 C 172.071 214.405,168.810 217.600,168.644 217.600 C 168.214 217.600,167.200 218.671,167.200 219.125 C 167.200 219.335,166.509 220.113,165.664 220.853 C 163.676 222.596,163.780 222.496,157.536 228.721 C 154.601 231.648,152.069 234.168,151.909 234.321 C 151.748 234.475,149.832 236.400,147.649 238.600 C 142.829 243.460,143.460 242.829,138.600 247.649 C 136.400 249.832,134.475 251.748,134.321 251.909 C 134.168 252.069,131.648 254.601,128.721 257.536 C 122.496 263.780,122.596 263.676,120.853 265.664 C 120.113 266.509,119.335 267.200,119.125 267.200 C 118.671 267.200,117.600 268.214,117.600 268.644 C 117.600 269.373,103.573 282.800,102.811 282.800 C 102.365 282.800,102.000 282.980,102.000 283.200 C 102.000 283.437,100.541 283.600,98.424 283.600 C 96.457 283.600,94.736 283.420,94.600 283.200 C 94.464 282.980,94.059 282.800,93.700 282.800 C 90.967 282.800,87.296 274.559,88.753 271.695 C 88.948 271.313,89.350 270.484,89.646 269.852 C 89.943 269.221,90.599 268.321,91.105 267.852 C 91.610 267.384,93.618 265.380,95.567 263.400 C 99.637 259.264,107.863 251.016,113.046 245.873 C 115.001 243.933,118.666 240.198,121.190 237.573 C 123.715 234.948,125.909 232.800,126.066 232.800 C 126.439 232.800,132.800 226.439,132.800 226.066 C 132.800 225.909,134.948 223.715,137.573 221.190 C 140.198 218.666,143.933 214.996,145.873 213.035 C 147.813 211.075,152.010 206.890,155.200 203.736 C 161.607 197.400,164.931 194.035,171.192 187.545 C 173.498 185.155,175.508 183.200,175.660 183.200 C 175.811 183.200,177.570 181.565,179.568 179.568 C 181.565 177.570,183.200 175.811,183.200 175.660 C 183.200 175.508,185.155 173.498,187.545 171.192 C 194.035 164.931,197.400 161.607,203.736 155.200 C 206.890 152.010,211.075 147.813,213.035 145.873 C 214.996 143.933,218.666 140.198,221.190 137.573 C 223.715 134.948,225.909 132.800,226.066 132.800 C 226.439 132.800,232.800 126.439,232.800 126.066 C 232.800 125.909,234.948 123.715,237.573 121.190 C 240.198 118.666,243.933 115.001,245.873 113.046 C 251.016 107.863,259.264 99.637,263.400 95.567 C 265.380 93.618,267.384 91.610,267.852 91.105 C 268.321 90.599,269.221 89.943,269.852 89.647 C 270.484 89.350,271.270 88.959,271.600 88.777 C 272.728 88.157,276.202 88.377,277.825 89.171 M295.200 190.918 C 301.175 192.519,304.095 199.367,301.145 204.860 C 300.195 206.629,289.722 217.589,288.961 217.610 C 288.763 217.616,287.343 219.011,285.807 220.710 C 282.312 224.576,271.174 235.638,268.900 237.503 C 267.965 238.269,267.200 239.079,267.200 239.303 C 267.200 239.670,259.106 247.832,254.171 252.441 C 253.087 253.454,249.410 257.186,246.000 260.735 C 242.590 264.284,239.597 267.190,239.348 267.194 C 239.100 267.197,238.269 267.965,237.503 268.900 C 235.638 271.174,224.576 282.312,220.710 285.807 C 219.011 287.343,217.616 288.763,217.610 288.961 C 217.588 289.738,206.619 300.202,204.856 301.128 C 196.068 305.741,187.212 296.453,192.061 287.708 C 193.140 285.763,286.481 192.583,288.063 191.872 C 291.498 190.330,292.504 190.195,295.200 190.918 " stroke="none" fill="#040404" fill-rule="evenodd"></path><path id="path2" d="M272.600 89.183 C 272.069 89.399,272.675 89.507,274.400 89.504 C 276.228 89.501,276.703 89.407,276.000 89.190 C 274.688 88.783,273.585 88.781,272.600 89.183 M268.874 90.858 C 267.924 91.530,267.237 92.170,267.347 92.280 C 267.457 92.390,267.939 92.115,268.419 91.668 C 268.898 91.221,269.855 90.577,270.545 90.237 C 271.235 89.897,271.530 89.622,271.200 89.627 C 270.870 89.632,269.823 90.186,268.874 90.858 M277.233 89.735 C 278.093 90.433,281.200 92.393,281.200 92.238 C 281.200 91.976,277.743 89.600,277.361 89.600 C 277.199 89.600,277.142 89.661,277.233 89.735 M258.600 101.063 C 253.980 105.595,250.560 109.019,251.000 108.671 C 252.200 107.723,267.431 92.821,267.200 92.821 C 267.090 92.821,263.220 96.530,258.600 101.063 M283.301 98.200 C 283.305 99.080,283.387 99.393,283.483 98.895 C 283.579 98.398,283.575 97.678,283.475 97.295 C 283.375 96.913,283.296 97.320,283.301 98.200 M274.006 111.303 C 269.939 115.316,267.509 117.847,268.606 116.928 C 270.704 115.168,281.929 103.998,281.595 104.003 C 281.488 104.004,278.073 107.289,274.006 111.303 M246.192 113.700 L 242.200 117.800 246.300 113.808 C 248.555 111.612,250.400 109.767,250.400 109.708 C 250.400 109.418,249.901 109.892,246.192 113.700 M229.663 129.847 C 222.988 136.531,217.627 142.000,217.750 142.000 C 218.053 142.000,242.087 117.950,241.927 117.807 C 241.857 117.745,236.338 123.163,229.663 129.847 M259.639 125.665 C 255.876 129.441,252.853 132.586,252.920 132.654 C 252.988 132.721,256.158 129.632,259.966 125.788 C 263.774 121.945,266.797 118.800,266.685 118.800 C 266.572 118.800,263.402 121.889,259.639 125.665 M242.439 142.733 C 237.070 148.160,233.470 151.880,234.439 151.001 C 239.455 146.446,253.034 132.656,252.330 132.833 C 252.259 132.851,247.807 137.306,242.439 142.733 M213.392 146.500 L 209.400 150.600 213.500 146.608 C 215.755 144.412,217.600 142.567,217.600 142.508 C 217.600 142.218,217.101 142.692,213.392 146.500 M204.592 154.900 C 202.176 157.375,198.578 161.117,196.599 163.217 C 194.620 165.316,196.384 163.606,200.520 159.417 C 208.782 151.048,209.402 150.400,209.155 150.400 C 209.063 150.400,207.009 152.425,204.592 154.900 M225.687 159.556 C 222.105 163.210,219.045 166.375,218.887 166.589 C 218.729 166.803,221.795 163.837,225.700 159.999 C 229.605 156.160,232.800 152.970,232.800 152.910 C 232.800 152.423,231.356 153.773,225.687 159.556 M192.449 192.744 C 178.286 206.965,167.216 218.151,167.849 217.601 C 172.003 213.998,219.198 166.541,218.327 166.844 C 218.257 166.868,206.612 178.523,192.449 192.744 M187.780 171.707 C 185.371 174.172,184.185 175.471,185.144 174.594 C 187.696 172.262,192.404 167.471,192.273 167.340 C 192.211 167.277,190.189 169.243,187.780 171.707 M179.792 180.100 L 176.200 183.800 179.900 180.208 C 183.336 176.872,183.782 176.400,183.492 176.400 C 183.432 176.400,181.767 178.065,179.792 180.100 M171.400 188.000 C 168.988 190.420,167.109 192.400,167.226 192.400 C 167.436 192.400,171.531 188.417,174.581 185.244 C 177.887 181.807,175.595 183.792,171.400 188.000 M291.500 191.489 C 292.215 191.578,293.385 191.578,294.100 191.489 C 294.815 191.401,294.230 191.328,292.800 191.328 C 291.370 191.328,290.785 191.401,291.500 191.489 M158.600 201.063 C 153.980 205.595,150.560 209.019,151.000 208.671 C 152.200 207.723,167.431 192.821,167.200 192.821 C 167.090 192.821,163.220 196.530,158.600 201.063 M276.981 202.930 C 266.373 213.594,264.708 215.364,265.612 215.017 C 265.949 214.888,266.569 214.291,266.992 213.691 C 267.414 213.091,270.649 209.751,274.180 206.269 C 277.711 202.787,281.320 199.228,282.200 198.359 C 283.900 196.682,287.007 193.180,286.752 193.230 C 286.668 193.246,282.271 197.611,276.981 202.930 M300.678 203.805 C 300.312 204.572,300.095 205.200,300.196 205.200 C 300.470 205.200,301.684 202.751,301.501 202.568 C 301.414 202.481,301.044 203.038,300.678 203.805 M294.353 211.166 C 291.358 214.155,287.634 217.860,286.078 219.400 C 284.522 220.940,281.033 224.454,278.324 227.210 C 275.616 229.965,271.902 233.627,270.070 235.347 C 268.239 237.067,266.816 238.550,266.908 238.642 C 267.001 238.734,274.510 231.423,283.595 222.395 C 292.681 213.367,300.044 205.925,299.957 205.857 C 299.871 205.789,297.349 208.178,294.353 211.166 M146.192 213.700 L 142.200 217.800 146.300 213.808 C 150.108 210.099,150.582 209.600,150.292 209.600 C 150.233 209.600,148.388 211.445,146.192 213.700 M239.953 239.953 C 226.559 253.347,215.600 264.536,215.600 264.817 C 215.600 265.099,216.176 264.625,216.881 263.764 C 217.585 262.904,221.050 259.356,224.581 255.879 C 228.111 252.403,231.511 249.044,232.136 248.415 C 232.760 247.786,236.421 244.121,240.271 240.271 C 244.121 236.421,247.786 232.760,248.415 232.136 C 249.044 231.511,252.403 228.111,255.879 224.581 C 259.356 221.050,262.904 217.585,263.764 216.881 C 264.625 216.176,265.099 215.600,264.817 215.600 C 264.536 215.600,253.347 226.559,239.953 239.953 M129.663 229.847 C 122.988 236.531,117.627 242.000,117.750 242.000 C 118.053 242.000,142.087 217.950,141.927 217.807 C 141.857 217.745,136.338 223.163,129.663 229.847 M159.639 225.665 C 155.876 229.441,152.853 232.586,152.920 232.654 C 152.988 232.721,156.158 229.632,159.966 225.788 C 163.774 221.945,166.797 218.800,166.685 218.800 C 166.572 218.800,163.402 221.889,159.639 225.665 M142.439 242.733 C 137.070 248.160,133.470 251.880,134.439 251.001 C 139.455 246.446,153.034 232.656,152.330 232.833 C 152.259 232.851,147.807 237.306,142.439 242.733 M261.308 244.300 C 258.453 247.105,255.145 250.328,253.958 251.462 C 250.941 254.344,242.516 263.025,240.630 265.194 C 239.767 266.187,242.197 263.815,246.030 259.923 C 249.864 256.030,256.144 249.775,259.986 246.023 C 263.829 242.270,266.866 239.200,266.736 239.200 C 266.606 239.200,264.164 241.495,261.308 244.300 M113.392 246.500 L 109.400 250.600 113.500 246.608 C 117.308 242.899,117.782 242.400,117.492 242.400 C 117.433 242.400,115.588 244.245,113.392 246.500 M104.592 254.900 C 102.176 257.375,98.578 261.117,96.599 263.217 C 94.620 265.316,96.384 263.606,100.520 259.417 C 108.782 251.048,109.402 250.400,109.155 250.400 C 109.063 250.400,107.009 252.425,104.592 254.900 M125.687 259.556 C 122.105 263.210,119.045 266.375,118.887 266.589 C 118.729 266.803,121.795 263.837,125.700 259.999 C 129.605 256.160,132.800 252.970,132.800 252.910 C 132.800 252.423,131.356 253.773,125.687 259.556 M203.849 276.100 C 197.882 282.095,193.850 286.280,194.890 285.400 C 195.929 284.520,197.490 283.080,198.359 282.200 C 199.228 281.320,202.787 277.711,206.269 274.180 C 209.751 270.649,213.091 267.414,213.691 266.992 C 214.718 266.268,215.461 265.200,214.937 265.200 C 214.805 265.200,209.816 270.105,203.849 276.100 M111.800 273.437 C 103.208 282.270,102.729 282.853,109.530 276.200 C 114.390 271.446,118.826 266.726,118.337 266.829 C 118.262 266.845,115.320 269.819,111.800 273.437 M237.305 267.941 C 236.528 268.924,228.267 277.307,219.901 285.600 C 213.732 291.715,205.634 300.000,205.826 300.000 C 206.037 300.000,228.841 277.220,235.372 270.484 C 237.337 268.458,238.777 266.802,238.572 266.804 C 238.368 266.806,237.797 267.317,237.305 267.941 M90.085 270.013 C 89.818 270.440,89.601 271.017,89.602 271.295 C 89.604 271.573,89.877 271.278,90.210 270.640 C 90.903 269.311,90.811 268.850,90.085 270.013 M89.049 273.300 C 88.917 274.015,88.971 275.140,89.170 275.800 C 89.479 276.826,89.536 276.637,89.566 274.500 C 89.604 271.742,89.417 271.309,89.049 273.300 M89.612 277.400 C 89.626 278.122,92.359 281.550,93.290 282.016 C 94.026 282.384,93.988 282.292,93.089 281.536 C 92.479 281.021,91.444 279.790,90.791 278.800 C 90.138 277.810,89.607 277.180,89.612 277.400 M97.505 283.483 C 98.002 283.579,98.722 283.575,99.105 283.475 C 99.487 283.375,99.080 283.296,98.200 283.301 C 97.320 283.305,97.007 283.387,97.505 283.483 M191.328 292.800 C 191.328 294.230,191.401 294.815,191.489 294.100 C 191.578 293.385,191.578 292.215,191.489 291.500 C 191.401 290.785,191.328 291.370,191.328 292.800 M193.391 299.186 C 193.655 299.612,196.069 300.864,196.260 300.673 C 196.332 300.602,195.665 300.156,194.778 299.683 C 193.892 299.210,193.268 298.986,193.391 299.186 " stroke="none" fill="#a4a4a4" fill-rule="evenodd"></path><path id="path3" d="M271.862 88.700 C 271.760 88.865,272.902 89.000,274.400 89.000 C 275.898 89.000,277.040 88.865,276.938 88.700 C 276.836 88.535,275.694 88.400,274.400 88.400 C 273.106 88.400,271.964 88.535,271.862 88.700 M268.942 90.112 C 268.249 90.587,267.462 91.341,267.191 91.788 C 266.833 92.380,267.012 92.308,267.850 91.525 C 268.482 90.934,269.540 90.170,270.200 89.828 C 270.860 89.485,271.130 89.215,270.800 89.227 C 270.470 89.240,269.634 89.638,268.942 90.112 M277.633 89.330 C 277.725 89.401,278.430 89.867,279.200 90.366 L 280.600 91.273 279.478 90.237 C 278.860 89.667,278.155 89.200,277.911 89.200 C 277.667 89.200,277.542 89.258,277.633 89.330 M264.581 94.500 L 263.000 96.200 264.700 94.619 C 266.281 93.148,266.584 92.800,266.281 92.800 C 266.216 92.800,265.451 93.565,264.581 94.500 M259.400 99.460 C 258.195 100.536,258.105 100.685,259.036 100.063 C 260.141 99.324,261.532 97.976,261.149 98.015 C 261.067 98.023,260.280 98.673,259.400 99.460 M254.400 104.200 C 253.428 105.190,252.723 106.000,252.833 106.000 C 252.943 106.000,253.828 105.190,254.800 104.200 C 255.772 103.210,256.477 102.400,256.367 102.400 C 256.257 102.400,255.372 103.210,254.400 104.200 M280.497 105.514 C 278.796 107.359,279.053 107.602,280.800 105.800 C 281.540 105.037,282.068 104.342,281.973 104.257 C 281.878 104.171,281.214 104.737,280.497 105.514 M249.541 109.300 C 248.812 110.235,248.535 110.746,248.926 110.436 C 249.703 109.819,251.373 107.600,251.061 107.600 C 250.954 107.600,250.271 108.365,249.541 109.300 M275.487 110.507 C 273.392 112.722,273.845 112.796,276.008 110.592 C 276.975 109.606,277.594 108.824,277.383 108.853 C 277.172 108.883,276.319 109.627,275.487 110.507 M244.581 114.500 L 243.000 116.200 244.700 114.619 C 246.281 113.148,246.584 112.800,246.281 112.800 C 246.216 112.800,245.451 113.565,244.581 114.500 M270.085 115.862 C 269.141 116.818,268.519 117.600,268.701 117.600 C 268.884 117.600,269.828 116.790,270.800 115.800 C 271.772 114.810,272.394 114.028,272.183 114.062 C 271.972 114.096,271.028 114.906,270.085 115.862 M239.178 119.500 L 237.800 121.000 239.300 119.622 C 240.696 118.338,240.984 118.000,240.678 118.000 C 240.612 118.000,239.937 118.675,239.178 119.500 M265.697 120.314 C 263.996 122.159,264.253 122.402,266.000 120.600 C 266.740 119.837,267.268 119.142,267.173 119.057 C 267.078 118.971,266.414 119.537,265.697 120.314 M234.408 124.192 C 233.441 125.177,232.729 126.057,232.825 126.146 C 232.921 126.236,233.780 125.430,234.733 124.355 C 236.900 121.910,236.731 121.825,234.408 124.192 M260.279 125.693 C 258.693 127.389,259.171 127.481,260.806 125.794 C 261.549 125.027,261.987 124.421,261.778 124.447 C 261.570 124.474,260.896 125.034,260.279 125.693 M229.375 129.700 L 228.200 131.000 229.500 129.825 C 230.215 129.179,230.800 128.594,230.800 128.525 C 230.800 128.216,230.470 128.488,229.375 129.700 M255.487 130.507 C 253.392 132.722,253.845 132.796,256.008 130.592 C 256.975 129.606,257.594 128.824,257.383 128.853 C 257.172 128.883,256.319 129.627,255.487 130.507 M223.983 134.683 L 222.200 136.566 224.200 134.815 C 225.300 133.852,226.275 133.004,226.367 132.932 C 226.458 132.859,226.361 132.800,226.150 132.800 C 225.939 132.800,224.964 133.647,223.983 134.683 M250.027 135.830 C 249.312 136.616,248.811 137.345,248.915 137.448 C 249.019 137.552,249.680 136.909,250.385 136.018 C 251.971 134.016,251.773 133.912,250.027 135.830 M219.178 139.500 L 217.800 141.000 219.300 139.622 C 220.696 138.338,220.984 138.000,220.678 138.000 C 220.612 138.000,219.937 138.675,219.178 139.500 M245.479 140.493 C 243.893 142.189,244.371 142.281,246.006 140.594 C 246.749 139.827,247.187 139.221,246.978 139.247 C 246.770 139.274,246.096 139.834,245.479 140.493 M214.181 144.900 L 212.600 146.600 214.300 145.019 C 215.881 143.548,216.184 143.200,215.881 143.200 C 215.816 143.200,215.051 143.965,214.181 144.900 M240.279 145.693 C 238.693 147.389,239.171 147.481,240.806 145.794 C 241.549 145.027,241.987 144.421,241.778 144.447 C 241.570 144.474,240.896 145.034,240.279 145.693 M209.000 149.839 C 207.773 150.934,207.688 151.077,208.636 150.452 C 209.752 149.716,211.120 148.391,210.749 148.406 C 210.667 148.409,209.880 149.054,209.000 149.839 M235.600 150.279 L 234.200 151.716 235.900 150.425 C 236.835 149.714,237.600 149.058,237.600 148.966 C 237.600 148.501,236.858 148.988,235.600 150.279 M204.000 154.600 C 203.028 155.590,202.323 156.400,202.433 156.400 C 202.543 156.400,203.428 155.590,204.400 154.600 C 205.372 153.610,206.077 152.800,205.967 152.800 C 205.857 152.800,204.972 153.610,204.000 154.600 M230.287 155.707 C 228.192 157.922,228.645 157.996,230.808 155.792 C 231.775 154.806,232.394 154.024,232.183 154.053 C 231.972 154.083,231.119 154.827,230.287 155.707 M199.183 159.700 C 198.440 160.635,198.148 161.146,198.535 160.836 C 199.263 160.251,200.977 158.000,200.694 158.000 C 200.606 158.000,199.926 158.765,199.183 159.700 M225.479 160.493 C 223.893 162.189,224.371 162.281,226.006 160.594 C 226.749 159.827,227.187 159.221,226.978 159.247 C 226.770 159.274,226.096 159.834,225.479 160.493 M194.181 164.900 L 192.600 166.600 194.300 165.019 C 195.881 163.548,196.184 163.200,195.881 163.200 C 195.816 163.200,195.051 163.965,194.181 164.900 M220.063 165.857 C 219.327 166.596,218.887 167.200,219.084 167.200 C 219.282 167.200,220.054 166.570,220.800 165.800 C 221.546 165.030,221.987 164.426,221.778 164.457 C 221.570 164.488,220.798 165.118,220.063 165.857 M189.200 169.400 C 188.228 170.390,187.523 171.200,187.633 171.200 C 187.743 171.200,188.628 170.390,189.600 169.400 C 190.572 168.410,191.277 167.600,191.167 167.600 C 191.057 167.600,190.172 168.410,189.200 169.400 M215.703 170.333 C 213.487 172.691,213.732 172.911,216.000 170.600 C 216.963 169.619,217.671 168.752,217.575 168.672 C 217.479 168.593,216.636 169.340,215.703 170.333 M184.406 174.194 C 183.663 174.961,183.132 175.650,183.227 175.725 C 183.322 175.800,184.006 175.173,184.746 174.331 C 186.429 172.418,186.212 172.331,184.406 174.194 M210.287 175.707 C 208.192 177.922,208.645 177.996,210.808 175.792 C 211.775 174.806,212.394 174.024,212.183 174.053 C 211.972 174.083,211.119 174.827,210.287 175.707 M179.381 179.700 L 177.800 181.400 179.500 179.819 C 181.081 178.348,181.384 178.000,181.081 178.000 C 181.016 178.000,180.251 178.765,179.381 179.700 M205.479 180.493 C 203.893 182.189,204.371 182.281,206.006 180.594 C 206.749 179.827,207.187 179.221,206.978 179.247 C 206.770 179.274,206.096 179.834,205.479 180.493 M173.978 184.700 L 172.600 186.200 174.196 184.800 C 175.073 184.030,175.868 183.355,175.962 183.300 C 176.056 183.245,175.959 183.200,175.745 183.200 C 175.532 183.200,174.737 183.875,173.978 184.700 M200.427 185.430 C 199.712 186.216,199.203 186.936,199.296 187.030 C 199.390 187.123,200.045 186.480,200.752 185.600 C 202.348 183.614,202.167 183.519,200.427 185.430 M169.200 189.400 C 168.228 190.390,167.523 191.200,167.633 191.200 C 167.743 191.200,168.628 190.390,169.600 189.400 C 170.572 188.410,171.277 187.600,171.167 187.600 C 171.057 187.600,170.172 188.410,169.200 189.400 M195.487 190.507 C 193.392 192.722,193.845 192.796,196.008 190.592 C 196.975 189.606,197.594 188.824,197.383 188.853 C 197.172 188.883,196.319 189.627,195.487 190.507 M291.020 190.761 C 290.535 190.951,291.208 191.067,292.800 191.067 C 294.392 191.067,295.065 190.951,294.580 190.761 C 294.151 190.594,293.350 190.456,292.800 190.456 C 292.250 190.456,291.449 190.594,291.020 190.761 M298.689 192.830 C 299.178 193.339,299.678 193.655,299.801 193.532 C 299.924 193.409,299.524 192.992,298.912 192.606 L 297.800 191.904 298.689 192.830 M164.581 194.500 L 163.000 196.200 164.700 194.619 C 166.281 193.148,166.584 192.800,166.281 192.800 C 166.216 192.800,165.451 193.565,164.581 194.500 M282.100 197.090 C 280.285 198.999,278.800 200.621,278.800 200.696 C 278.800 200.946,280.080 199.814,281.848 198.000 C 285.019 194.745,286.027 193.600,285.711 193.610 C 285.540 193.616,283.915 195.182,282.100 197.090 M190.287 195.707 C 188.192 197.922,188.645 197.996,190.808 195.792 C 191.775 194.806,192.394 194.024,192.183 194.053 C 191.972 194.083,191.119 194.827,190.287 195.707 M159.400 199.460 C 158.195 200.536,158.105 200.685,159.036 200.063 C 160.141 199.324,161.532 197.976,161.149 198.015 C 161.067 198.023,160.280 198.673,159.400 199.460 M302.101 200.200 C 302.105 201.080,302.187 201.393,302.283 200.895 C 302.379 200.398,302.375 199.678,302.275 199.295 C 302.175 198.913,302.096 199.320,302.101 200.200 M185.200 200.672 L 183.800 202.101 185.500 200.784 C 186.435 200.059,187.200 199.406,187.200 199.333 C 187.200 198.902,186.425 199.421,185.200 200.672 M277.286 201.854 C 276.783 202.374,276.530 202.800,276.724 202.800 C 277.148 202.800,278.597 201.255,278.364 201.051 C 278.274 200.972,277.789 201.333,277.286 201.854 M154.400 204.200 C 153.428 205.190,152.723 206.000,152.833 206.000 C 152.943 206.000,153.828 205.190,154.800 204.200 C 155.772 203.210,156.477 202.400,156.367 202.400 C 156.257 202.400,155.372 203.210,154.400 204.200 M301.028 204.118 C 299.690 207.034,299.623 207.200,299.771 207.200 C 300.056 207.200,302.041 203.124,301.922 202.784 C 301.855 202.593,301.453 203.194,301.028 204.118 M274.604 204.396 C 273.974 205.054,273.535 205.657,273.629 205.738 C 273.723 205.818,274.390 205.280,275.111 204.542 C 275.833 203.804,276.271 203.200,276.086 203.200 C 275.901 203.200,275.234 203.738,274.604 204.396 M180.279 205.693 C 178.693 207.389,179.171 207.481,180.806 205.794 C 181.549 205.027,181.987 204.421,181.778 204.447 C 181.570 204.474,180.896 205.034,180.279 205.693 M272.086 207.054 C 271.583 207.574,271.330 208.000,271.524 208.000 C 271.948 208.000,273.397 206.455,273.164 206.251 C 273.074 206.172,272.589 206.533,272.086 207.054 M298.202 207.998 C 297.803 208.439,297.607 208.800,297.767 208.800 C 298.188 208.800,299.328 207.595,299.112 207.379 C 299.011 207.278,298.602 207.556,298.202 207.998 M149.541 209.300 C 148.812 210.235,148.535 210.746,148.926 210.436 C 149.703 209.819,151.373 207.600,151.061 207.600 C 150.954 207.600,150.271 208.365,149.541 209.300 M269.404 209.596 C 268.774 210.254,268.335 210.857,268.429 210.938 C 268.523 211.018,269.190 210.480,269.911 209.742 C 270.633 209.004,271.071 208.400,270.886 208.400 C 270.701 208.400,270.034 208.938,269.404 209.596 M175.487 210.507 C 173.392 212.722,173.845 212.796,176.008 210.592 C 176.975 209.606,177.594 208.824,177.383 208.853 C 177.172 208.883,176.319 209.627,175.487 210.507 M295.781 210.900 L 294.200 212.600 295.900 211.019 C 297.481 209.548,297.784 209.200,297.481 209.200 C 297.416 209.200,296.651 209.965,295.781 210.900 M264.351 214.897 C 262.454 216.824,260.985 218.400,261.087 218.400 C 261.878 218.400,268.453 211.767,267.948 211.478 C 267.867 211.432,266.248 212.970,264.351 214.897 M293.002 213.198 C 292.603 213.639,292.407 214.000,292.567 214.000 C 292.988 214.000,294.128 212.795,293.912 212.579 C 293.811 212.478,293.402 212.756,293.002 213.198 M144.581 214.500 L 143.000 216.200 144.700 214.619 C 146.281 213.148,146.584 212.800,146.281 212.800 C 146.216 212.800,145.451 213.565,144.581 214.500 M170.085 215.862 C 169.141 216.818,168.519 217.600,168.701 217.600 C 168.884 217.600,169.828 216.790,170.800 215.800 C 171.772 214.810,172.394 214.028,172.183 214.062 C 171.972 214.096,171.028 214.906,170.085 215.862 M290.975 215.700 L 289.800 217.000 291.100 215.825 C 291.815 215.179,292.400 214.594,292.400 214.525 C 292.400 214.216,292.070 214.488,290.975 215.700 M139.178 219.500 L 137.800 221.000 139.300 219.622 C 140.696 218.338,140.984 218.000,140.678 218.000 C 140.612 218.000,139.937 218.675,139.178 219.500 M165.697 220.314 C 163.996 222.159,164.253 222.402,166.000 220.600 C 166.740 219.837,167.268 219.142,167.173 219.057 C 167.078 218.971,166.414 219.537,165.697 220.314 M259.398 219.602 C 258.358 220.751,258.820 220.880,259.914 219.746 C 260.417 219.226,260.670 218.800,260.476 218.800 C 260.282 218.800,259.797 219.161,259.398 219.602 M285.479 220.493 C 283.893 222.189,284.371 222.281,286.006 220.594 C 286.749 219.827,287.187 219.221,286.978 219.247 C 286.770 219.274,286.096 219.834,285.479 220.493 M257.286 221.854 C 256.783 222.374,256.530 222.800,256.724 222.800 C 257.148 222.800,258.597 221.255,258.364 221.051 C 258.274 220.972,257.789 221.333,257.286 221.854 M283.400 222.546 C 282.278 223.850,281.935 224.399,282.251 224.387 C 282.641 224.373,284.158 222.420,283.939 222.213 C 283.863 222.140,283.620 222.290,283.400 222.546 M134.408 224.192 C 133.441 225.177,132.729 226.057,132.825 226.146 C 132.921 226.236,133.780 225.430,134.733 224.355 C 136.900 221.910,136.731 221.825,134.408 224.192 M254.604 224.396 C 253.974 225.054,253.535 225.657,253.629 225.738 C 253.723 225.818,254.390 225.280,255.111 224.542 C 255.833 223.804,256.271 223.200,256.086 223.200 C 255.901 223.200,255.234 223.738,254.604 224.396 M160.279 225.693 C 158.693 227.389,159.171 227.481,160.806 225.794 C 161.549 225.027,161.987 224.421,161.778 224.447 C 161.570 224.474,160.896 225.034,160.279 225.693 M280.575 226.100 L 279.400 227.400 280.700 226.225 C 281.415 225.579,282.000 224.994,282.000 224.925 C 282.000 224.616,281.670 224.888,280.575 226.100 M252.086 227.054 C 251.583 227.574,251.330 228.000,251.524 228.000 C 251.948 228.000,253.397 226.455,253.164 226.251 C 253.074 226.172,252.589 226.533,252.086 227.054 M278.202 227.998 C 277.803 228.439,277.607 228.800,277.767 228.800 C 278.188 228.800,279.328 227.595,279.112 227.379 C 279.011 227.278,278.602 227.556,278.202 227.998 M129.375 229.700 L 128.200 231.000 129.500 229.825 C 130.712 228.730,130.984 228.400,130.675 228.400 C 130.606 228.400,130.021 228.985,129.375 229.700 M246.900 232.208 C 244.865 234.232,243.200 235.997,243.200 236.130 C 243.200 236.543,248.789 231.311,250.297 229.486 C 252.031 227.388,250.563 228.564,246.900 232.208 M155.487 230.507 C 153.392 232.722,153.845 232.796,156.008 230.592 C 156.975 229.606,157.594 228.824,157.383 228.853 C 157.172 228.883,156.319 229.627,155.487 230.507 M275.781 230.900 L 274.200 232.600 275.900 231.019 C 276.835 230.149,277.600 229.384,277.600 229.319 C 277.600 229.016,277.252 229.319,275.781 230.900 M271.264 234.864 C 269.891 236.204,268.822 237.355,268.889 237.422 C 268.956 237.490,270.140 236.454,271.520 235.120 C 272.900 233.786,273.968 232.635,273.895 232.562 C 273.821 232.488,272.637 233.524,271.264 234.864 M123.983 234.683 L 122.200 236.566 124.200 234.815 C 125.300 233.852,126.275 233.004,126.367 232.932 C 126.458 232.859,126.361 232.800,126.150 232.800 C 125.939 232.800,124.964 233.647,123.983 234.683 M150.027 235.830 C 149.312 236.616,148.811 237.345,148.915 237.448 C 149.019 237.552,149.680 236.909,150.385 236.018 C 151.971 234.016,151.773 233.912,150.027 235.830 M241.686 237.454 C 241.183 237.974,240.930 238.400,241.124 238.400 C 241.548 238.400,242.997 236.855,242.764 236.651 C 242.674 236.572,242.189 236.933,241.686 237.454 M119.178 239.500 L 117.800 241.000 119.300 239.622 C 120.696 238.338,120.984 238.000,120.678 238.000 C 120.612 238.000,119.937 238.675,119.178 239.500 M239.398 239.602 C 238.358 240.751,238.820 240.880,239.914 239.746 C 240.417 239.226,240.670 238.800,240.476 238.800 C 240.282 238.800,239.797 239.161,239.398 239.602 M145.479 240.493 C 143.893 242.189,144.371 242.281,146.006 240.594 C 146.749 239.827,147.187 239.221,146.978 239.247 C 146.770 239.274,146.096 239.834,145.479 240.493 M265.829 240.762 L 264.658 242.200 266.009 240.913 C 266.751 240.205,267.278 239.558,267.179 239.475 C 267.081 239.392,266.473 239.971,265.829 240.762 M237.286 241.854 C 236.783 242.374,236.530 242.800,236.724 242.800 C 237.148 242.800,238.597 241.255,238.364 241.051 C 238.274 240.972,237.789 241.333,237.286 241.854 M263.055 243.055 C 262.468 243.641,262.062 244.195,262.152 244.285 C 262.242 244.375,262.795 243.968,263.382 243.382 C 263.968 242.795,264.375 242.242,264.285 242.152 C 264.195 242.062,263.641 242.468,263.055 243.055 M114.181 244.900 L 112.600 246.600 114.300 245.019 C 115.881 243.548,116.184 243.200,115.881 243.200 C 115.816 243.200,115.051 243.965,114.181 244.900 M232.100 247.102 C 230.065 249.233,228.400 251.025,228.400 251.085 C 228.400 251.508,231.444 248.581,234.686 245.041 C 237.835 241.602,235.819 243.209,232.100 247.102 M140.279 245.693 C 138.693 247.389,139.171 247.481,140.806 245.794 C 141.549 245.027,141.987 244.421,141.778 244.447 C 141.570 244.474,140.896 245.034,140.279 245.693 M260.575 246.100 L 259.400 247.400 260.700 246.225 C 261.415 245.579,262.000 244.994,262.000 244.925 C 262.000 244.616,261.670 244.888,260.575 246.100 M258.202 247.998 C 257.803 248.439,257.607 248.800,257.767 248.800 C 258.188 248.800,259.328 247.595,259.112 247.379 C 259.011 247.278,258.602 247.556,258.202 247.998 M109.000 249.839 C 107.773 250.934,107.688 251.077,108.636 250.452 C 109.752 249.716,111.120 248.391,110.749 248.406 C 110.667 248.409,109.880 249.054,109.000 249.839 M135.600 250.279 L 134.200 251.716 135.900 250.425 C 136.835 249.714,137.600 249.058,137.600 248.966 C 137.600 248.501,136.858 248.988,135.600 250.279 M255.714 250.484 C 254.881 251.191,254.125 251.821,254.033 251.884 C 253.942 251.948,253.942 252.072,254.033 252.159 C 254.125 252.247,255.010 251.618,256.000 250.761 C 256.990 249.903,257.671 249.202,257.514 249.201 C 257.357 249.200,256.547 249.778,255.714 250.484 M226.886 252.254 C 226.383 252.774,226.130 253.200,226.324 253.200 C 226.748 253.200,228.197 251.655,227.964 251.451 C 227.874 251.372,227.389 251.733,226.886 252.254 M104.000 254.600 C 103.028 255.590,102.323 256.400,102.433 256.400 C 102.543 256.400,103.428 255.590,104.400 254.600 C 105.372 253.610,106.077 252.800,105.967 252.800 C 105.857 252.800,104.972 253.610,104.000 254.600 M224.204 254.796 C 223.574 255.454,223.135 256.057,223.229 256.138 C 223.323 256.218,223.990 255.680,224.711 254.942 C 225.433 254.204,225.871 253.600,225.686 253.600 C 225.501 253.600,224.834 254.138,224.204 254.796 M130.287 255.707 C 128.192 257.922,128.645 257.996,130.808 255.792 C 131.775 254.806,132.394 254.024,132.183 254.053 C 131.972 254.083,131.119 254.827,130.287 255.707 M250.800 255.286 C 248.612 258.001,248.728 258.441,250.935 255.800 C 251.763 254.810,252.296 254.010,252.120 254.022 C 251.944 254.034,251.350 254.603,250.800 255.286 M221.686 257.454 C 221.183 257.974,220.930 258.400,221.124 258.400 C 221.548 258.400,222.997 256.855,222.764 256.651 C 222.674 256.572,222.189 256.933,221.686 257.454 M247.802 258.398 C 247.403 258.839,247.207 259.200,247.367 259.200 C 247.788 259.200,248.928 257.995,248.712 257.779 C 248.611 257.678,248.202 257.956,247.802 258.398 M99.183 259.700 C 98.440 260.635,98.148 261.146,98.535 260.836 C 99.263 260.251,100.977 258.000,100.694 258.000 C 100.606 258.000,99.926 258.765,99.183 259.700 M219.398 259.602 C 218.358 260.751,218.820 260.880,219.914 259.746 C 220.417 259.226,220.670 258.800,220.476 258.800 C 220.282 258.800,219.797 259.161,219.398 259.602 M125.479 260.493 C 123.893 262.189,124.371 262.281,126.006 260.594 C 126.749 259.827,127.187 259.221,126.978 259.247 C 126.770 259.274,126.096 259.834,125.479 260.493 M245.775 260.900 L 244.600 262.200 245.900 261.025 C 246.615 260.379,247.200 259.794,247.200 259.725 C 247.200 259.416,246.870 259.688,245.775 260.900 M214.751 264.497 C 212.854 266.424,211.388 268.000,211.494 268.000 C 212.279 268.000,218.849 261.363,218.347 261.077 C 218.266 261.031,216.648 262.570,214.751 264.497 M243.055 263.055 C 242.468 263.641,242.062 264.195,242.152 264.285 C 242.242 264.375,242.795 263.968,243.382 263.382 C 243.968 262.795,244.375 262.242,244.285 262.152 C 244.195 262.062,243.641 262.468,243.055 263.055 M94.181 264.900 L 92.600 266.600 94.300 265.019 C 95.881 263.548,96.184 263.200,95.881 263.200 C 95.816 263.200,95.051 263.965,94.181 264.900 M120.063 265.857 C 119.327 266.596,118.887 267.200,119.084 267.200 C 119.282 267.200,120.054 266.570,120.800 265.800 C 121.546 265.030,121.987 264.426,121.778 264.457 C 121.570 264.488,120.798 265.118,120.063 265.857 M240.494 266.012 C 239.775 266.665,239.337 267.200,239.519 267.200 C 239.701 267.200,240.368 266.660,241.000 266.000 C 242.470 264.465,242.186 264.472,240.494 266.012 M91.585 267.313 C 90.685 268.027,89.200 270.239,89.202 270.862 C 89.204 271.158,89.485 270.860,89.828 270.200 C 90.170 269.540,90.923 268.505,91.500 267.900 C 92.597 266.751,92.636 266.480,91.585 267.313 M115.703 270.333 C 113.487 272.691,113.732 272.911,116.000 270.600 C 116.963 269.619,117.671 268.752,117.575 268.672 C 117.479 268.593,116.636 269.340,115.703 270.333 M209.404 269.596 C 208.774 270.254,208.335 270.857,208.429 270.938 C 208.523 271.018,209.190 270.480,209.911 269.742 C 210.633 269.004,211.071 268.400,210.886 268.400 C 210.701 268.400,210.034 268.938,209.404 269.596 M234.712 271.326 C 233.454 272.664,232.509 273.843,232.612 273.946 C 232.716 274.049,232.845 274.054,232.900 273.957 C 232.955 273.860,234.074 272.660,235.387 271.290 C 236.701 269.921,237.601 268.821,237.387 268.847 C 237.174 268.873,235.971 269.988,234.712 271.326 M206.886 272.254 C 206.383 272.774,206.130 273.200,206.324 273.200 C 206.748 273.200,208.197 271.655,207.964 271.451 C 207.874 271.372,207.389 271.733,206.886 272.254 M88.667 271.867 C 87.619 272.914,89.082 278.769,90.719 280.080 C 91.174 280.444,91.125 280.241,90.554 279.400 C 89.162 277.349,88.689 275.697,88.891 273.595 C 89.093 271.490,89.087 271.446,88.667 271.867 M204.204 274.796 C 203.574 275.454,203.135 276.057,203.229 276.138 C 203.323 276.218,203.990 275.680,204.711 274.942 C 205.433 274.204,205.871 273.600,205.686 273.600 C 205.501 273.600,204.834 274.138,204.204 274.796 M110.287 275.707 C 108.192 277.922,108.645 277.996,110.808 275.792 C 111.775 274.806,112.394 274.024,112.183 274.053 C 111.972 274.083,111.119 274.827,110.287 275.707 M230.581 276.100 L 229.000 277.800 230.700 276.219 C 232.281 274.748,232.584 274.400,232.281 274.400 C 232.216 274.400,231.451 275.165,230.581 276.100 M201.686 277.454 C 201.183 277.974,200.930 278.400,201.124 278.400 C 201.548 278.400,202.997 276.855,202.764 276.651 C 202.674 276.572,202.189 276.933,201.686 277.454 M227.802 278.398 C 227.403 278.839,227.207 279.200,227.367 279.200 C 227.788 279.200,228.928 277.995,228.712 277.779 C 228.611 277.678,228.202 277.956,227.802 278.398 M196.900 282.195 C 193.722 285.347,192.232 287.297,194.900 284.812 C 198.973 281.019,201.120 278.744,200.516 278.861 C 200.342 278.894,198.715 280.395,196.900 282.195 M105.600 280.350 C 105.050 280.930,104.150 281.709,103.600 282.081 C 103.050 282.454,102.808 282.767,103.061 282.779 C 103.315 282.791,104.395 281.997,105.461 281.016 C 106.528 280.035,107.220 279.246,107.000 279.263 C 106.780 279.281,106.150 279.770,105.600 280.350 M225.775 280.900 L 224.600 282.200 225.900 281.025 C 226.615 280.379,227.200 279.794,227.200 279.725 C 227.200 279.416,226.870 279.688,225.775 280.900 M223.021 283.016 C 222.391 283.557,222.039 283.994,222.238 283.987 C 222.732 283.969,224.556 282.423,224.339 282.206 C 224.244 282.110,223.650 282.475,223.021 283.016 M220.279 285.693 C 218.693 287.389,219.171 287.481,220.806 285.794 C 221.549 285.027,221.987 284.421,221.778 284.447 C 221.570 284.474,220.896 285.034,220.279 285.693 M215.375 291.300 L 214.200 292.600 215.500 291.425 C 216.215 290.779,216.800 290.194,216.800 290.125 C 216.800 289.816,216.470 290.088,215.375 291.300 M190.578 291.779 C 190.435 292.537,190.487 293.662,190.693 294.279 C 191.004 295.213,191.067 294.983,191.067 292.900 C 191.067 290.064,190.950 289.796,190.578 291.779 M213.002 293.198 C 212.603 293.639,212.407 294.000,212.567 294.000 C 212.988 294.000,214.128 292.795,213.912 292.579 C 213.811 292.478,213.402 292.756,213.002 293.198 M210.581 296.100 L 209.000 297.800 210.700 296.219 C 211.635 295.349,212.400 294.584,212.400 294.519 C 212.400 294.216,212.052 294.519,210.581 296.100 M207.802 298.398 C 207.403 298.839,207.207 299.200,207.367 299.200 C 207.788 299.200,208.928 297.995,208.712 297.779 C 208.611 297.678,208.202 297.956,207.802 298.398 M192.606 298.912 C 192.992 299.524,193.409 299.924,193.532 299.801 C 193.655 299.678,193.339 299.178,192.830 298.689 L 191.904 297.800 192.606 298.912 M205.689 300.265 C 204.968 300.620,204.443 300.977,204.524 301.057 C 204.695 301.228,207.200 300.024,207.200 299.771 C 207.200 299.529,207.147 299.546,205.689 300.265 M199.505 302.283 C 200.002 302.379,200.722 302.375,201.105 302.275 C 201.487 302.175,201.080 302.096,200.200 302.101 C 199.320 302.105,199.007 302.187,199.505 302.283 " stroke="none" fill="#484848" fill-rule="evenodd"></path><path id="path4" d="M264.587 94.900 L 262.200 97.400 264.700 95.013 C 266.075 93.699,267.200 92.574,267.200 92.513 C 267.200 92.217,266.805 92.578,264.587 94.900 M260.575 98.900 L 259.400 100.200 260.700 99.025 C 261.415 98.379,262.000 97.794,262.000 97.725 C 262.000 97.416,261.670 97.688,260.575 98.900 M254.585 104.500 L 252.600 106.600 254.700 104.615 C 256.651 102.771,256.983 102.400,256.685 102.400 C 256.622 102.400,255.677 103.345,254.585 104.500 M248.778 110.700 L 247.400 112.200 248.900 110.822 C 250.296 109.538,250.584 109.200,250.278 109.200 C 250.212 109.200,249.537 109.875,248.778 110.700 M275.375 110.500 L 274.200 111.800 275.500 110.625 C 276.215 109.979,276.800 109.394,276.800 109.325 C 276.800 109.016,276.470 109.288,275.375 110.500 M244.187 115.300 L 241.800 117.800 244.300 115.413 C 245.675 114.099,246.800 112.974,246.800 112.913 C 246.800 112.617,246.405 112.978,244.187 115.300 M270.175 115.700 L 269.000 117.000 270.300 115.825 C 271.015 115.179,271.600 114.594,271.600 114.525 C 271.600 114.216,271.270 114.488,270.175 115.700 M239.381 119.700 L 237.800 121.400 239.500 119.819 C 241.081 118.348,241.384 118.000,241.081 118.000 C 241.016 118.000,240.251 118.765,239.381 119.700 M234.981 124.100 L 233.400 125.800 235.100 124.219 C 236.681 122.748,236.984 122.400,236.681 122.400 C 236.616 122.400,235.851 123.165,234.981 124.100 M229.586 129.900 L 227.400 132.200 229.700 130.014 C 231.837 127.982,232.183 127.600,231.886 127.600 C 231.824 127.600,230.789 128.635,229.586 129.900 M255.375 130.500 L 254.200 131.800 255.500 130.625 C 256.215 129.979,256.800 129.394,256.800 129.325 C 256.800 129.016,256.470 129.288,255.375 130.500 M250.981 134.500 L 249.400 136.200 251.100 134.619 C 252.681 133.148,252.984 132.800,252.681 132.800 C 252.616 132.800,251.851 133.565,250.981 134.500 M223.781 135.300 L 222.200 137.000 223.900 135.419 C 225.481 133.948,225.784 133.600,225.481 133.600 C 225.416 133.600,224.651 134.365,223.781 135.300 M219.381 139.700 L 217.800 141.400 219.500 139.819 C 221.081 138.348,221.384 138.000,221.081 138.000 C 221.016 138.000,220.251 138.765,219.381 139.700 M214.987 144.500 L 212.600 147.000 215.100 144.613 C 216.475 143.299,217.600 142.174,217.600 142.113 C 217.600 141.817,217.205 142.178,214.987 144.500 M210.378 149.100 L 209.000 150.600 210.500 149.222 C 211.896 147.938,212.184 147.600,211.878 147.600 C 211.812 147.600,211.137 148.275,210.378 149.100 M234.181 151.300 L 232.600 153.000 234.300 151.419 C 235.881 149.948,236.184 149.600,235.881 149.600 C 235.816 149.600,235.051 150.365,234.181 151.300 M204.185 154.900 L 202.200 157.000 204.300 155.015 C 206.251 153.171,206.583 152.800,206.285 152.800 C 206.222 152.800,205.277 153.745,204.185 154.900 M230.175 155.700 L 229.000 157.000 230.300 155.825 C 231.015 155.179,231.600 154.594,231.600 154.525 C 231.600 154.216,231.270 154.488,230.175 155.700 M198.575 160.900 L 197.400 162.200 198.700 161.025 C 199.415 160.379,200.000 159.794,200.000 159.725 C 200.000 159.416,199.670 159.688,198.575 160.900 M194.587 164.900 L 192.200 167.400 194.700 165.013 C 197.022 162.795,197.383 162.400,197.087 162.400 C 197.026 162.400,195.901 163.525,194.587 164.900 M189.385 169.700 L 187.400 171.800 189.500 169.815 C 190.655 168.723,191.600 167.778,191.600 167.715 C 191.600 167.417,191.229 167.749,189.385 169.700 M215.375 170.500 L 214.200 171.800 215.500 170.625 C 216.215 169.979,216.800 169.394,216.800 169.325 C 216.800 169.016,216.470 169.288,215.375 170.500 M184.778 174.300 L 183.400 175.800 184.900 174.422 C 185.725 173.663,186.400 172.988,186.400 172.922 C 186.400 172.616,186.062 172.904,184.778 174.300 M210.175 175.700 L 209.000 177.000 210.300 175.825 C 211.015 175.179,211.600 174.594,211.600 174.525 C 211.600 174.216,211.270 174.488,210.175 175.700 M179.586 179.900 L 177.400 182.200 179.700 180.014 C 181.837 177.982,182.183 177.600,181.886 177.600 C 181.824 177.600,180.789 178.635,179.586 179.900 M201.600 183.800 C 200.628 184.790,199.923 185.600,200.033 185.600 C 200.143 185.600,201.028 184.790,202.000 183.800 C 202.972 182.810,203.677 182.000,203.567 182.000 C 203.457 182.000,202.572 182.810,201.600 183.800 M173.978 185.100 L 172.600 186.600 174.100 185.222 C 174.925 184.463,175.600 183.788,175.600 183.722 C 175.600 183.416,175.262 183.704,173.978 185.100 M169.385 189.700 L 167.400 191.800 169.500 189.815 C 170.655 188.723,171.600 187.778,171.600 187.715 C 171.600 187.417,171.229 187.749,169.385 189.700 M195.375 190.500 L 194.200 191.800 195.500 190.625 C 196.712 189.530,196.984 189.200,196.675 189.200 C 196.606 189.200,196.021 189.785,195.375 190.500 M164.587 194.900 L 162.200 197.400 164.700 195.013 C 167.022 192.795,167.383 192.400,167.087 192.400 C 167.026 192.400,165.901 193.525,164.587 194.900 M190.175 195.700 L 189.000 197.000 190.300 195.825 C 191.015 195.179,191.600 194.594,191.600 194.525 C 191.600 194.216,191.270 194.488,190.175 195.700 M160.575 198.900 L 159.400 200.200 160.700 199.025 C 161.415 198.379,162.000 197.794,162.000 197.725 C 162.000 197.416,161.670 197.688,160.575 198.900 M301.693 198.800 C 301.693 199.570,301.775 199.885,301.876 199.500 C 301.976 199.115,301.976 198.485,301.876 198.100 C 301.775 197.715,301.693 198.030,301.693 198.800 M183.600 201.800 C 182.628 202.790,181.923 203.600,182.033 203.600 C 182.143 203.600,183.028 202.790,184.000 201.800 C 184.972 200.810,185.677 200.000,185.567 200.000 C 185.457 200.000,184.572 200.810,183.600 201.800 M154.585 204.500 L 152.600 206.600 154.700 204.615 C 155.855 203.523,156.800 202.578,156.800 202.515 C 156.800 202.217,156.429 202.549,154.585 204.500 M295.600 210.600 C 294.628 211.590,293.923 212.400,294.033 212.400 C 294.143 212.400,295.028 211.590,296.000 210.600 C 296.972 209.610,297.677 208.800,297.567 208.800 C 297.457 208.800,296.572 209.610,295.600 210.600 M148.778 210.700 L 147.400 212.200 148.900 210.822 C 150.296 209.538,150.584 209.200,150.278 209.200 C 150.212 209.200,149.537 209.875,148.778 210.700 M175.375 210.500 L 174.200 211.800 175.500 210.625 C 176.712 209.530,176.984 209.200,176.675 209.200 C 176.606 209.200,176.021 209.785,175.375 210.500 M144.187 215.300 L 141.800 217.800 144.300 215.413 C 146.622 213.195,146.983 212.800,146.687 212.800 C 146.626 212.800,145.501 213.925,144.187 215.300 M290.778 215.500 L 289.400 217.000 290.900 215.622 C 292.296 214.338,292.584 214.000,292.278 214.000 C 292.212 214.000,291.537 214.675,290.778 215.500 M170.175 215.700 L 169.000 217.000 170.300 215.825 C 171.512 214.730,171.784 214.400,171.475 214.400 C 171.406 214.400,170.821 214.985,170.175 215.700 M139.381 219.700 L 137.800 221.400 139.500 219.819 C 141.081 218.348,141.384 218.000,141.081 218.000 C 141.016 218.000,140.251 218.765,139.381 219.700 M134.981 224.100 L 133.400 225.800 135.100 224.219 C 136.681 222.748,136.984 222.400,136.681 222.400 C 136.616 222.400,135.851 223.165,134.981 224.100 M280.378 225.900 L 279.000 227.400 280.500 226.022 C 281.896 224.738,282.184 224.400,281.878 224.400 C 281.812 224.400,281.137 225.075,280.378 225.900 M129.586 229.900 L 127.400 232.200 129.700 230.014 C 131.837 227.982,132.183 227.600,131.886 227.600 C 131.824 227.600,130.789 228.635,129.586 229.900 M275.600 230.600 C 274.628 231.590,273.923 232.400,274.033 232.400 C 274.143 232.400,275.028 231.590,276.000 230.600 C 276.972 229.610,277.677 228.800,277.567 228.800 C 277.457 228.800,276.572 229.610,275.600 230.600 M155.375 230.500 L 154.200 231.800 155.500 230.625 C 156.712 229.530,156.984 229.200,156.675 229.200 C 156.606 229.200,156.021 229.785,155.375 230.500 M150.981 234.500 L 149.400 236.200 151.100 234.619 C 152.681 233.148,152.984 232.800,152.681 232.800 C 152.616 232.800,151.851 233.565,150.981 234.500 M123.781 235.300 L 122.200 237.000 123.900 235.419 C 125.481 233.948,125.784 233.600,125.481 233.600 C 125.416 233.600,124.651 234.365,123.781 235.300 M270.175 235.700 L 269.000 237.000 270.300 235.825 C 271.015 235.179,271.600 234.594,271.600 234.525 C 271.600 234.216,271.270 234.488,270.175 235.700 M119.381 239.700 L 117.800 241.400 119.500 239.819 C 121.081 238.348,121.384 238.000,121.081 238.000 C 121.016 238.000,120.251 238.765,119.381 239.700 M265.375 240.900 L 264.200 242.200 265.500 241.025 C 266.215 240.379,266.800 239.794,266.800 239.725 C 266.800 239.416,266.470 239.688,265.375 240.900 M114.987 244.500 L 112.600 247.000 115.100 244.613 C 116.475 243.299,117.600 242.174,117.600 242.113 C 117.600 241.817,117.205 242.178,114.987 244.500 M260.378 245.900 L 259.000 247.400 260.500 246.022 C 261.896 244.738,262.184 244.400,261.878 244.400 C 261.812 244.400,261.137 245.075,260.378 245.900 M110.378 249.100 L 109.000 250.600 110.500 249.222 C 111.896 247.938,112.184 247.600,111.878 247.600 C 111.812 247.600,111.137 248.275,110.378 249.100 M134.181 251.300 L 132.600 253.000 134.300 251.419 C 135.881 249.948,136.184 249.600,135.881 249.600 C 135.816 249.600,135.051 250.365,134.181 251.300 M104.185 254.900 L 102.200 257.000 104.300 255.015 C 105.455 253.923,106.400 252.978,106.400 252.915 C 106.400 252.617,106.029 252.949,104.185 254.900 M130.175 255.700 L 129.000 257.000 130.300 255.825 C 131.512 254.730,131.784 254.400,131.475 254.400 C 131.406 254.400,130.821 254.985,130.175 255.700 M245.578 260.700 L 244.200 262.200 245.700 260.822 C 247.096 259.538,247.384 259.200,247.078 259.200 C 247.012 259.200,246.337 259.875,245.578 260.700 M98.575 260.900 L 97.400 262.200 98.700 261.025 C 99.912 259.930,100.184 259.600,99.875 259.600 C 99.806 259.600,99.221 260.185,98.575 260.900 M94.587 264.900 L 92.200 267.400 94.700 265.013 C 97.022 262.795,97.383 262.400,97.087 262.400 C 97.026 262.400,95.901 263.525,94.587 264.900 M240.575 265.700 L 239.400 267.000 240.700 265.825 C 241.415 265.179,242.000 264.594,242.000 264.525 C 242.000 264.216,241.670 264.488,240.575 265.700 M115.375 270.500 L 114.200 271.800 115.500 270.625 C 116.712 269.530,116.984 269.200,116.675 269.200 C 116.606 269.200,116.021 269.785,115.375 270.500 M235.375 270.500 L 234.200 271.800 235.500 270.625 C 236.215 269.979,236.800 269.394,236.800 269.325 C 236.800 269.016,236.470 269.288,235.375 270.500 M230.400 275.800 C 229.428 276.790,228.723 277.600,228.833 277.600 C 228.943 277.600,229.828 276.790,230.800 275.800 C 231.772 274.810,232.477 274.000,232.367 274.000 C 232.257 274.000,231.372 274.810,230.400 275.800 M110.175 275.700 L 109.000 277.000 110.300 275.825 C 111.512 274.730,111.784 274.400,111.475 274.400 C 111.406 274.400,110.821 274.985,110.175 275.700 M225.578 280.700 L 224.200 282.200 225.700 280.822 C 226.525 280.063,227.200 279.388,227.200 279.322 C 227.200 279.016,226.862 279.304,225.578 280.700 M215.178 291.100 L 213.800 292.600 215.300 291.222 C 216.696 289.938,216.984 289.600,216.678 289.600 C 216.612 289.600,215.937 290.275,215.178 291.100 M210.400 295.800 C 209.428 296.790,208.723 297.600,208.833 297.600 C 208.943 297.600,209.828 296.790,210.800 295.800 C 211.772 294.810,212.477 294.000,212.367 294.000 C 212.257 294.000,211.372 294.810,210.400 295.800 " stroke="none" fill="#7c7c7c" fill-rule="evenodd"></path></g></svg>